#tb 0: 1/48000
#media_type 0: audio
#codec_id 0: dolby_e
#sample_rate 0: 44800
#channel_layout_name 0: 7.1
0,          0,          0,     1920,    11496, 0x05a9c147
0,       1920,       1920,     1920,    11496, 0x1d44d2b4
0,       3840,       3840,     1920,    11496, 0x4e078953
0,       5760,       5760,     1920,    11496, 0x1c73b1a1
0,       7680,       7680,     1920,    11262, 0xfa179fc8
